<svg width="43" height="43" viewBox="0 0 43 43" fill="none" xmlns="http://www.w3.org/2000/svg">
<path d="M2.33301 20.333C2.33301 11.8477 2.33301 7.60509 4.96905 4.96905C7.60509 2.33301 11.8477 2.33301 20.333 2.33301H22.6663C31.1516 2.33301 35.3943 2.33301 38.0303 4.96905C40.6663 7.60509 40.6663 11.8477 40.6663 20.333V36.6663C40.6663 38.552 40.6663 39.4948 40.0806 40.0806C39.4948 40.6663 38.552 40.6663 36.6663 40.6663H20.333C11.8477 40.6663 7.60509 40.6663 4.96905 38.0303C2.33301 35.3943 2.33301 31.1516 2.33301 22.6663V20.333Z" stroke="white" stroke-width="4"/>
<path d="M14.3125 19.1035L28.6875 19.1035" stroke="white" stroke-width="4" stroke-linecap="round" stroke-linejoin="round"/>
<path d="M21.5 28.6875H28.6875" stroke="white" stroke-width="4" stroke-linecap="round" stroke-linejoin="round"/>
</svg>
