<svg width="23" height="23" viewBox="0 0 23 23" fill="none" xmlns="http://www.w3.org/2000/svg">
<path fill-rule="evenodd" clip-rule="evenodd" d="M3.59375 0H19.4062C21.391 0 23 1.60898 23 3.59375V19.4062C23 21.391 21.391 23 19.4062 23H3.59375C1.60898 23 0 21.391 0 19.4062V3.59375C0 1.60898 1.60898 0 3.59375 0ZM11.9973 8.6303C10.9673 9.0587 8.90882 9.94538 5.82182 11.2903C5.32053 11.4897 5.05794 11.6847 5.03404 11.8754C4.99364 12.1976 5.3972 12.3245 5.94675 12.4973C6.0215 12.5209 6.09896 12.5452 6.17836 12.571C6.71903 12.7468 7.44633 12.9524 7.82443 12.9605C8.16739 12.968 8.55018 12.8266 8.9728 12.5364C11.8571 10.5894 13.346 9.6053 13.4394 9.58408C13.5054 9.56912 13.5968 9.5503 13.6587 9.60533C13.7206 9.66036 13.7145 9.76459 13.708 9.79255C13.668 9.96298 12.0838 11.4357 11.264 12.1979C11.0085 12.4355 10.8272 12.604 10.7901 12.6425C10.7071 12.7287 10.6225 12.8103 10.5412 12.8887C10.0389 13.3729 9.66222 13.736 10.5621 14.329C10.9945 14.614 11.3405 14.8496 11.6857 15.0847C12.0627 15.3414 12.4387 15.5975 12.9252 15.9164C13.0492 15.9977 13.1676 16.0821 13.2829 16.1643C13.7216 16.477 14.1158 16.758 14.6027 16.7132C14.8857 16.6872 15.178 16.4211 15.3264 15.6276C15.6772 13.7522 16.3668 9.68882 16.5261 8.0144C16.5401 7.86769 16.5225 7.67995 16.5084 7.59753C16.4943 7.51511 16.4648 7.39769 16.3577 7.31076C16.2308 7.20781 16.035 7.1861 15.9474 7.18757C15.5491 7.19466 14.938 7.40714 11.9973 8.6303Z" fill="#3B6BE8"/>
</svg>
