<svg width="86" height="29" viewBox="0 0 86 29" fill="none" xmlns="http://www.w3.org/2000/svg">
<path d="M39.7078 19.0938H27.374V22.4852H39.7078V19.0938Z" fill="#B5B5B5"/>
<path d="M39.7078 12.6367H27.374V16.0282H39.7078V12.6367Z" fill="#B5B5B5"/>
<path d="M39.7078 6.17285H27.374V9.56249H39.7078V6.17285Z" fill="#B5B5B5"/>
<path d="M65.1795 5.95703H62.2227V22.697H65.1795V5.95703Z" fill="#B5B5B5"/>
<path d="M65.1795 0.0947266H62.2227V3.48437H65.1795V0.0947266Z" fill="#B5B5B5"/>
<path d="M13.0853 5.74512H0V9.1366H5.06334V22.485H8.02016V9.1366H13.0835V5.74512H13.0853Z" fill="#B5B5B5"/>
<path d="M78.6983 14.3309L85.9999 5.96094H81.8161L76.6064 11.9329L71.3986 5.96094H67.2148L74.5164 14.3309L67.2148 22.7027H71.3986L76.6064 16.7289L81.8161 22.7027H85.9999L78.6983 14.3327V14.3309Z" fill="#B5B5B5"/>
<path d="M44.1143 5.74512V22.485H47.0711V9.1366H48.5504C52.6263 9.1366 55.9452 12.9391 55.9452 17.6135V22.485H58.902V17.6135C58.902 11.0701 54.2574 5.74512 48.5504 5.74512H44.1143Z" fill="#B5B5B5"/>
<path d="M21.4803 15.905C23.0858 21.2631 21.3523 26.4997 18.6423 28.6802H15.3052C18.3406 24.8445 19.4524 21.4733 18.2565 17.4846L18.2455 17.4588L17.3111 14.3124L17.2362 14.0636L16.854 12.7752C15.2521 7.42809 16.9728 2.20078 19.6773 0.0129024C19.6828 0.00737279 19.6865 0.0036864 19.6919 0H23.0291C19.9937 3.83569 18.8819 7.20875 20.0759 11.1974L21.4693 15.881L21.4803 15.905Z" fill="#B5B5B5"/>
</svg>
