<svg width="23" height="23" viewBox="0 0 23 23" fill="none" xmlns="http://www.w3.org/2000/svg">
<path fill-rule="evenodd" clip-rule="evenodd" d="M3.59375 0C1.60898 0 0 1.60898 0 3.59375V19.4062C0 21.391 1.60898 23 3.59375 23H19.4062C21.391 23 23 21.391 23 19.4062V3.59375C23 1.60898 21.391 0 19.4062 0H3.59375ZM15.525 7.40313C14.4469 6.325 13.0094 5.75 11.5 5.75C8.3375 5.75 5.75 8.3375 5.75 11.5C5.75 12.5063 6.03751 13.5125 6.54063 14.375L5.75 17.25L8.76876 16.4594C9.63126 16.8906 10.5656 17.1781 11.5 17.1781C14.6625 17.1781 17.25 14.5906 17.25 11.4281C17.25 9.91875 16.6031 8.48125 15.525 7.40313ZM11.5 16.2437C10.6375 16.2437 9.775 16.0281 9.05625 15.5969L8.9125 15.525L7.11562 16.0281L7.61875 14.3031L7.475 14.0875C6.97187 13.2969 6.75625 12.4344 6.75625 11.5719C6.75625 8.98438 8.9125 6.82812 11.5 6.82812C12.7938 6.82812 13.9438 7.33125 14.8781 8.19375C15.8125 9.12812 16.2438 10.2781 16.2438 11.5719C16.2438 14.0875 14.1594 16.2437 11.5 16.2437ZM14.0875 12.65L14.0875 12.65C13.9436 12.5781 13.225 12.2188 13.0813 12.2188C12.9375 12.1469 12.8656 12.1469 12.7937 12.2906C12.7578 12.3625 12.668 12.4703 12.5781 12.5781C12.4883 12.6859 12.3984 12.7938 12.3625 12.8656C12.2906 12.9375 12.2187 12.9375 12.075 12.9375C12.0526 12.9263 12.0231 12.9133 11.9872 12.8975L11.9872 12.8975C11.7931 12.812 11.4102 12.6433 10.925 12.2188C10.4938 11.8594 10.2063 11.3563 10.1344 11.2125C10.0625 11.0688 10.1344 10.9969 10.2062 10.925L10.2063 10.925L10.4219 10.7094C10.4578 10.6734 10.4758 10.6375 10.4938 10.6016C10.5117 10.5656 10.5297 10.5297 10.5656 10.4937C10.6136 10.4458 10.5976 10.3979 10.5816 10.35C10.5736 10.326 10.5656 10.3021 10.5656 10.2781C10.5656 10.2062 10.2781 9.4875 10.1344 9.2C10.0625 8.98438 9.91876 8.98438 9.84688 8.98438H9.55937C9.48749 8.98438 9.34374 8.98438 9.19999 9.12812C9.05624 9.27188 8.69688 9.63125 8.69688 10.35C8.69688 10.9464 9.04324 11.4932 9.20225 11.7443L9.20226 11.7443L9.20238 11.7445L9.20243 11.7446L9.20244 11.7446C9.23498 11.796 9.25965 11.8349 9.27187 11.8594C9.28077 11.8683 9.30288 11.8992 9.33751 11.9476C9.58274 12.2906 10.456 13.5118 11.7156 14.0156C12.7305 14.4335 13.0512 14.4051 13.2954 14.3835H13.2955C13.3453 14.3791 13.3919 14.375 13.4406 14.375C13.7281 14.375 14.3031 14.0156 14.375 13.7281C14.5187 13.3687 14.5188 13.0812 14.4469 13.0812C14.3862 12.7778 14.2743 12.7306 14.1544 12.68L14.1543 12.6799L14.1542 12.6799C14.1321 12.6706 14.1098 12.6612 14.0875 12.65L14.0875 12.65ZM11.796 8.43333C11.796 8.29022 11.9105 8.17778 12.0515 8.17778C12.8213 8.17778 13.4888 8.43333 14.0152 8.93933L14.0203 8.94444C14.2887 9.21533 14.4982 9.53732 14.6357 9.88999C14.7732 10.2427 14.8361 10.6209 14.8197 10.9991C14.8136 11.1422 14.6945 11.2496 14.5534 11.2444C14.4129 11.2393 14.303 11.1167 14.3091 10.9787C14.3224 10.672 14.2713 10.3653 14.1594 10.074C14.0474 9.78776 13.8777 9.52709 13.659 9.3022C13.2348 8.89842 12.6981 8.68889 12.0515 8.68889C11.9105 8.68889 11.796 8.57644 11.796 8.43333ZM11.7785 9.27163C11.7785 9.13363 11.893 9.01607 12.0341 9.01607H12.0596L12.0683 9.02119C12.6402 9.05696 13.1146 9.25115 13.4601 9.62426H13.4606C13.7994 9.99226 13.9696 10.4472 13.9574 10.9787C13.9543 11.1167 13.8373 11.2292 13.6962 11.2292C13.5551 11.224 13.4432 11.1065 13.4463 10.9685C13.456 10.5596 13.3297 10.2376 13.0859 9.97184C12.8483 9.71629 12.5089 9.56296 12.0428 9.52718H12.0341C11.893 9.52718 11.7785 9.41474 11.7785 9.27163ZM12.0243 9.87472C11.8837 9.8645 11.7631 9.97699 11.7559 10.115C11.7483 10.2581 11.8566 10.3756 11.9977 10.3858C12.2113 10.3961 12.3478 10.4574 12.4337 10.5443C12.52 10.6312 12.5844 10.7743 12.5962 10.989C12.6034 11.1321 12.724 11.2394 12.865 11.2343C13.0056 11.2241 13.114 11.1065 13.1063 10.9634C13.0899 10.6567 12.9938 10.3859 12.7971 10.1866C12.5993 9.98722 12.3299 9.89006 12.0243 9.87472Z" fill="#3B6BE8"/>
</svg>
