<svg width="65" height="73" viewBox="0 0 65 73" fill="none" xmlns="http://www.w3.org/2000/svg">
<path d="M9.14093 51.7472L10.7435 49.8284L9.14093 51.7472L30.2564 69.3833L31.859 67.4646L30.2564 69.3834C31.5554 70.4683 33.4446 70.4683 34.7436 69.3833L55.8591 51.7472C57.5114 50.3671 58.5784 48.4116 58.8449 46.2753L62.3878 17.8678C62.5806 16.3214 61.7279 14.8338 60.296 14.2188L59.3093 16.5158L60.296 14.2188L33.8814 2.87248L32.9065 5.14202L33.8814 2.87248C32.9994 2.49364 32.0006 2.49364 31.1186 2.87248L4.70398 14.2188C3.27213 14.8338 2.41939 16.3214 2.61225 17.8678L6.15513 46.2753C6.42156 48.4116 7.48865 50.3671 9.14093 51.7472Z" stroke="#3B6BE8" stroke-width="5" stroke-linecap="round"/>
<path d="M21 36.5L32.1415 47.5727C32.3644 47.7942 32.734 47.7576 32.9091 47.4966L48 25" stroke="#3B6BE8" stroke-width="5" stroke-linecap="round"/>
</svg>
