<svg width="80" height="76" viewBox="0 0 80 76" fill="none" xmlns="http://www.w3.org/2000/svg">
<path d="M3 13.2941V13.2941C3 11.1616 3 10.0953 3.20205 9.2134C3.88727 6.22264 6.22264 3.88727 9.2134 3.20205C10.0953 3 11.1616 3 13.2941 3L49.5267 3C56.076 3 59.3506 3 61.5589 4.80262C61.9757 5.14286 62.3571 5.52429 62.6974 5.9411C64.5 8.14939 64.5 11.424 64.5 17.9733V17.9733C64.5 20.4292 64.5 21.6572 63.824 22.4853C63.6964 22.6416 63.5534 22.7847 63.3971 22.9123C62.569 23.5882 61.341 23.5882 58.885 23.5882L52.3333 23.5882M3 13.2941V17.5882C3 20.4167 3 21.8309 3.87868 22.7096C4.75736 23.5882 6.17157 23.5882 9 23.5882L61 23.5882C68.5425 23.5882 72.3137 23.5882 74.6569 25.9314C77 28.2745 77 32.0458 77 39.5882L77 40.0588M3 13.2941L3 57C3 64.5425 3 68.3137 5.34315 70.6569C7.68629 73 11.4575 73 19 73L61 73C68.5425 73 72.3137 73 74.6569 70.6569C77 68.3137 77 64.5425 77 57L77 56.5294M77 56.5294H60.5686C56.0204 56.5294 52.3333 52.8423 52.3333 48.2941V48.2941C52.3333 43.7459 56.0204 40.0588 60.5686 40.0588H77M77 56.5294L77 40.0588" stroke="#3B6BE8" stroke-width="5"/>
</svg>
