<svg width="131" height="54" viewBox="0 0 131 54" fill="none" xmlns="http://www.w3.org/2000/svg">
<path d="M2.74799 41.6847H7.90428L8.17596 47.7671C8.18147 47.8958 8.18562 48.0325 8.18837 48.1758C8.19113 48.3192 8.1925 48.4997 8.1925 48.7186C8.1925 48.9044 8.18836 49.1182 8.18008 49.3597C8.17181 49.6012 8.15803 49.8707 8.1401 50.168C8.2518 49.8083 8.38971 49.4287 8.55658 49.0266C8.72206 48.6245 8.91926 48.1878 9.14681 47.7166L12.0277 41.6847H17.3756L14.6879 53.6557H11.6153L13.1833 46.428C13.2647 46.0285 13.3626 45.6078 13.4757 45.1645C13.5901 44.7199 13.717 44.2488 13.8563 43.7484H13.7515L8.91098 53.6557H5.84672L5.39992 43.7484H5.25235C5.11168 44.5235 4.99447 45.1659 4.90207 45.6742C4.80829 46.1825 4.74761 46.501 4.71727 46.6297L3.1424 53.6557H0.0864258L2.74799 41.6847Z" fill="black"/>
<path d="M25.1139 44.0272L22.3572 48.8448H25.7096L25.1139 44.0272ZM23.4508 41.6847H27.5741L29.5793 53.6557H26.2792L25.9551 51.1036H21.0788L19.5908 53.6557H16.0977L23.4508 41.6847Z" fill="black"/>
<path d="M41.3781 41.9542L40.6086 44.2873C40.1535 44.0909 39.6915 43.9436 39.2254 43.8453C38.7579 43.7471 38.2794 43.6981 37.7898 43.6981C37.0479 43.6981 36.4811 43.8029 36.0867 44.0139C35.6937 44.2249 35.4964 44.5289 35.4964 44.9284C35.4964 45.361 35.9391 45.7539 36.8272 46.1069C37.183 46.2476 37.463 46.3656 37.6671 46.4612C38.7 46.9443 39.4033 47.4155 39.777 47.876C40.1508 48.3379 40.3369 48.9244 40.3369 49.6371C40.3369 50.9457 39.817 51.9889 38.7786 52.7666C37.7402 53.5443 36.3308 53.9331 34.5504 53.9331C33.7975 53.9331 33.0762 53.8787 32.3839 53.7699C31.693 53.6598 31.0255 53.4952 30.3843 53.2762L31.1014 50.8077C31.6213 51.0559 32.1247 51.2404 32.6115 51.3638C33.0996 51.4885 33.5754 51.5495 34.0429 51.5495C34.8952 51.5495 35.5668 51.4155 36.0563 51.1447C36.5459 50.8753 36.7914 50.5104 36.7914 50.0499C36.7914 49.4713 36.1405 48.9324 34.84 48.432C34.5132 48.3086 34.2594 48.2104 34.0774 48.1374C33.3713 47.8507 32.8473 47.4752 32.5025 47.0094C32.1578 46.5422 31.9854 45.9808 31.9854 45.3238C31.9854 44.1665 32.4667 43.2283 33.4306 42.5063C34.3932 41.7843 35.6564 41.4233 37.2203 41.4233C38.0904 41.4233 38.8765 41.4684 39.5798 41.5587C40.2832 41.6476 40.883 41.7803 41.3781 41.9542Z" fill="black"/>
<path d="M43.1118 41.6847H52.7417L52.2246 43.9926H49.0472L46.9111 53.6557H43.5586L45.6947 43.9926H42.6125L43.1118 41.6847Z" fill="black"/>
<path d="M54.1245 41.6847H62.887L62.3878 43.9091H56.9336L56.4179 46.3098H61.5466L61.0749 48.4665H55.9366L55.2884 51.4155H60.9343L60.435 53.6557H51.4712L54.1245 41.6847Z" fill="black"/>
<path d="M67.7099 43.8745L67.1238 46.6722H68.3056C69.0751 46.6722 69.6709 46.5355 70.0915 46.2634C70.5107 45.9914 70.7217 45.6078 70.7217 45.1128C70.7217 44.704 70.5769 44.3948 70.2873 44.1864C69.9991 43.9794 69.5716 43.8745 69.0062 43.8745H67.7099ZM64.9697 41.6847H69.6626C71.1451 41.6847 72.2594 41.9329 73.0054 42.4306C73.7529 42.9269 74.1266 43.6675 74.1266 44.6496C74.1266 45.5322 73.8287 46.2369 73.233 46.7651C72.6386 47.292 71.7946 47.5986 70.7038 47.6835C71.0417 47.8852 71.3051 48.1228 71.4912 48.3949C71.6788 48.6669 71.8277 49.0651 71.938 49.5867L72.8579 53.6557H69.5923L68.7166 49.8056C68.6352 49.4685 68.4849 49.2323 68.2656 49.0982C68.0464 48.9629 67.7016 48.8965 67.2286 48.8965H66.6328L65.5917 53.6557H62.3357L64.9697 41.6847Z" fill="black"/>
<path d="M74.9585 47.5482H79.7824L79.2915 49.7221H74.4675L74.9585 47.5482Z" fill="black"/>
<path d="M93.3325 41.9794L92.614 44.4399C92.1479 44.1984 91.6639 44.0166 91.166 43.8958C90.6668 43.7751 90.1455 43.7153 89.6035 43.7153C87.957 43.7153 86.6675 44.1188 85.7339 44.9284C84.8003 45.7366 84.3328 46.8461 84.3328 48.2555C84.3328 49.2841 84.6196 50.0897 85.1906 50.6736C85.7629 51.2576 86.5503 51.5495 87.5543 51.5495C87.7584 51.5495 87.9694 51.5336 88.1845 51.5031C88.401 51.4726 88.6341 51.4262 88.8851 51.3638L89.445 48.8621H87.3971L87.8784 46.6882H93.0608L91.5908 53.3107C90.9716 53.5071 90.3124 53.6545 89.6118 53.7527C88.9113 53.8509 88.1445 53.9 87.3102 53.9C85.2968 53.9 83.7357 53.4036 82.6269 52.4095C81.5168 51.4155 80.9624 50.0194 80.9624 48.2224C80.9624 47.312 81.1196 46.4626 81.4313 45.6743C81.7429 44.8846 82.2035 44.1918 82.8103 43.5972C83.5688 42.8328 84.4583 42.2741 85.4802 41.921C86.5007 41.5667 87.7446 41.3901 89.2091 41.3901C89.9621 41.3901 90.6792 41.4379 91.3619 41.5334C92.0459 41.629 92.7023 41.7776 93.3325 41.9794Z" fill="#B22D90"/>
<path d="M99.2145 43.8745L98.6284 46.6722H99.8103C100.581 46.6722 101.176 46.5355 101.596 46.2634C102.017 45.9914 102.226 45.6078 102.226 45.1128C102.226 44.704 102.082 44.3948 101.793 44.1864C101.504 43.9794 101.076 43.8745 100.511 43.8745H99.2145ZM96.4757 41.6847H101.167C102.65 41.6847 103.764 41.9329 104.511 42.4306C105.258 42.9269 105.631 43.6675 105.631 44.6496C105.631 45.5322 105.333 46.2369 104.739 46.7651C104.143 47.292 103.301 47.5986 102.208 47.6835C102.548 47.8852 102.81 48.1228 102.997 48.3949C103.183 48.6669 103.332 49.0651 103.443 49.5867L104.363 53.6557H101.097L100.221 49.8056C100.14 49.4685 99.9895 49.2323 99.7703 49.0982C99.5524 48.9629 99.2062 48.8965 98.7332 48.8965H98.1389L97.0963 53.6557H93.8403L96.4757 41.6847Z" fill="#B22D90"/>
<path d="M108.345 41.6847H111.679L110.175 48.3564C110.104 48.6484 110.053 48.9364 110.022 49.2204C109.988 49.5044 109.973 49.7804 109.973 50.0499C109.973 50.4998 110.142 50.878 110.481 51.1872C110.819 51.4965 111.236 51.6504 111.732 51.6504C112.398 51.6504 112.926 51.4035 113.316 50.9098C113.708 50.4148 114.053 49.5256 114.349 48.2382L115.855 41.6847H119.058L117.466 49.1314C117.104 50.8169 116.451 52.0432 115.505 52.813C114.56 53.5827 113.235 53.9676 111.53 53.9676C109.961 53.9676 108.756 53.6212 107.916 52.9271C107.076 52.233 106.655 51.2403 106.655 49.9489C106.655 49.657 106.669 49.3743 106.699 49.1022C106.728 48.8301 106.775 48.57 106.839 48.3232L108.345 41.6847Z" fill="#B22D90"/>
<path d="M121.406 41.6847H131L130.404 44.0935L122.735 51.3478H128.846L128.26 53.6557H118.561L119.147 50.8594L126.377 43.9594H120.907L121.406 41.6847Z" fill="#B22D90"/>
<path fill-rule="evenodd" clip-rule="evenodd" d="M48.5161 30.2198L49.0644 31.8622H36.7432L38.4894 37.094H129.367C130.492 37.094 131.28 35.9254 130.905 34.8113L128.924 28.9181C128.3 27.0602 126.901 25.6039 125.126 24.9642L109.68 19.3975C107.96 18.7774 106.384 17.7836 105.055 16.4809L94.4475 6.08647C90.553 2.27027 85.424 0.146973 80.0962 0.146973L55.1284 0.147235H42.2134H23.0559L24.3725 4.09023H43.5301L44.1564 5.96625H11.2388L12.5554 9.90924L48.3643 9.909H69.2004L67.1953 4.12382L86.359 18.0832L76.8732 32.0422L74.8677 26.2573H47.1932L47.1998 26.2768H24.9534L26.27 30.2198H48.5161ZM7.32508 5.96625H3.6642L4.98056 9.90924H8.64169L7.32508 5.96625ZM39.5759 16.6663H64.7973L63.4809 12.7235H38.2596L39.5759 16.6663ZM19.1836 23.4236H58.9709L57.6551 19.4806H17.867L19.1836 23.4236ZM69.549 19.4806H61.444L62.7603 23.4236H70.8653L69.549 19.4806ZM34.4522 12.7235H26.3473L27.6636 16.6663H35.7686L34.4522 12.7235Z" fill="url(#paint0_linear_54_86)"/>
<defs>
<linearGradient id="paint0_linear_54_86" x1="110.12" y1="28.2644" x2="35.1849" y2="28.2644" gradientUnits="userSpaceOnUse">
<stop stop-color="#FF7B51"/>
<stop offset="1" stop-color="#B12C8F"/>
</linearGradient>
</defs>
</svg>
